<svg width="500" height="500" viewBox="0 0 500 500" fill="none" xmlns="http://www.w3.org/2000/svg">
<g clip-path="url(#clip0_132_529)">
<rect width="500" height="500" rx="100" fill="white"/>
<g clip-path="url(#clip1_132_529)">
<path d="M78.4297 250.001C78.4297 317.915 117.898 376.605 175.129 404.418L93.2844 180.174C83.7643 201.512 78.4297 225.126 78.4297 250.001Z" fill="#21759B"/>
<path d="M365.834 241.342C365.834 220.138 358.217 205.453 351.685 194.023C342.987 179.89 334.835 167.921 334.835 153.788C334.835 138.016 346.797 123.334 363.647 123.334C364.408 123.334 365.129 123.429 365.87 123.471C335.344 95.5049 294.675 78.4302 250.007 78.4302C190.065 78.4302 137.329 109.184 106.65 155.766C110.676 155.887 114.47 155.972 117.692 155.972C135.638 155.972 163.418 153.794 163.418 153.794C172.667 153.249 173.758 166.834 164.518 167.927C164.518 167.927 155.224 169.021 144.881 169.563L207.362 355.41L244.91 242.798L218.178 169.557C208.939 169.015 200.186 167.921 200.186 167.921C190.94 167.379 192.024 153.242 201.27 153.788C201.27 153.788 229.605 155.965 246.464 155.965C264.407 155.965 292.191 153.788 292.191 153.788C301.446 153.242 302.534 166.827 293.291 167.921C293.291 167.921 283.977 169.015 273.653 169.557L335.658 353.997L352.772 296.808C360.189 273.076 365.834 256.031 365.834 241.342Z" fill="#21759B"/>
<path d="M253.017 265.009L201.538 414.597C216.908 419.116 233.163 421.587 250.006 421.587C269.987 421.587 289.148 418.133 306.983 411.862C306.523 411.127 306.105 410.347 305.762 409.498L253.017 265.009Z" fill="#21759B"/>
<path d="M400.559 167.683C401.297 173.148 401.715 179.015 401.715 185.325C401.715 202.736 398.463 222.309 388.669 246.782L336.259 398.309C387.268 368.564 421.578 313.301 421.578 250.004C421.581 220.174 413.961 192.123 400.559 167.683Z" fill="#21759B"/>
<path d="M250.007 50.0005C139.726 50.0005 50 139.72 50 250C50 360.294 139.726 450.01 250.007 450.01C360.284 450.01 450.023 360.294 450.023 250C450.02 139.72 360.284 50.0005 250.007 50.0005ZM250.007 440.843C144.783 440.843 59.1707 355.231 59.1707 250C59.1707 144.777 144.78 59.1712 250.007 59.1712C355.227 59.1712 440.833 144.777 440.833 250C440.833 355.231 355.227 440.843 250.007 440.843Z" fill="#21759B"/>
</g>
</g>
<defs>
<clipPath id="clip0_132_529">
<rect width="500" height="500" fill="white"/>
</clipPath>
<clipPath id="clip1_132_529">
<rect width="400" height="400.01" fill="white" transform="translate(50 50.0005)"/>
</clipPath>
</defs>
</svg>
